# xmcd
#
# Track frame offsets: 
#        150
#        16399
#        34732
#        51328
#        69234
#        85511
#        101285
#        117311
#        139766
#        152112
#        165651
#        180203
#        197128
#        210828
#
# Disc length: 3110 seconds
#
# Revision: 0
# Processed by: cddbd v1.5.2PL0 Copyright (c) Steve Scherf et al.
# Submitted via: ExactAudioCopyFreeDBPlugin 1.0
#
DISCID=a90c240e
DTITLE=Studebaker John - Promise Of Love
DYEAR=2000
DGENRE=Blues
TTITLE0=What More Can A Man Ask For
TTITLE1=This Road
TTITLE2=Promise Of Love
TTITLE3=Can You Feel It
TTITLE4=Nothin' For Nothin'
TTITLE5=Nothing But The Blues
TTITLE6=Twistin' With Lucy
TTITLE7=Highway Bound
TTITLE8=Storm
TTITLE9=Middle Of Nowhere
TTITLE10=Can You Tell Me Why
TTITLE11=Shake It
TTITLE12=Let It Roll On
TTITLE13=All Or Nothing
EXTD=
EXTT0=
EXTT1=
EXTT2=
EXTT3=
EXTT4=
EXTT5=
EXTT6=
EXTT7=
EXTT8=
EXTT9=
EXTT10=
EXTT11=
EXTT12=
EXTT13=
PLAYORDER=
